# https://github.com/mikedh/trimesh

o geometry_0
v -0.00499871 -0.01860000 0.07300147
v -0.00699886 -0.01835239 0.07300147
v -0.00699886 -0.01832044 0.07100332
v -0.00499871 -0.01853078 0.07100332
v 0.00499871 -0.01860000 0.07300147
v -0.00499871 -0.01860000 0.09699705
v -0.00829863 -0.01755364 0.07100332
v -0.00699886 -0.01835239 0.09699705
v -0.00819930 -0.01736993 0.06974469
v -0.00699886 -0.01764150 0.06953493
v -0.00499871 -0.01773203 0.06945315
v 0.00499871 -0.01853078 0.07100332
v 0.00699886 -0.01832044 0.07100332
v 0.00699886 -0.01835239 0.07300147
v 0.00499871 -0.01860000 0.09699705
v -0.00499871 -0.01853078 0.09899875
v -0.00699886 -0.01832044 0.09899875
v -0.00860000 -0.01599875 0.07100332
v -0.00829863 -0.01755364 0.09899875
v -0.00860000 -0.00599843 0.06477777
v -0.00829863 -0.00755333 0.06477777
v -0.00699886 -0.00835474 0.06477777
v 0.00499871 -0.01773203 0.06945315
v -0.00499871 -0.00859969 0.06477777
v 0.00699886 -0.01764150 0.06953493
v 0.00829863 -0.01755364 0.07100332
v 0.00819930 -0.01736993 0.06974469
v 0.00699886 -0.01835239 0.09699705
v 0.00699886 -0.01832044 0.09899875
v 0.00499871 -0.01853078 0.09899875
v -0.00499871 -0.01773203 0.10054891
v -0.00699886 -0.01764150 0.10046358
v -0.00819930 -0.01736993 0.10025382
v -0.00860000 -0.01599875 0.09899875
v -0.00860000 0.00599875 0.06477777
v 0.00499871 -0.00859969 0.06477777
v 0.00699886 -0.00835474 0.06477777
v 0.00860000 -0.01599875 0.07100332
v 0.00829863 -0.01755364 0.09899875
v 0.00815552 -0.00764385 0.06477777
v 0.00829863 -0.00755333 0.06477777
v 0.00833230 -0.00738027 0.06477777
v 0.00860000 -0.00599843 0.06477777
v 0.00819930 -0.01736993 0.10025382
v 0.00699886 -0.01764150 0.10046358
v 0.00499871 -0.01773203 0.10054891
v -0.00499871 -0.01599875 0.10109645
v -0.00699886 -0.01599875 0.10093290
v -0.00829863 -0.01599875 0.10038180
v -0.00860000 0.00599875 0.09899875
v -0.00833230 0.00738058 0.06477777
v 0.00860000 -0.01599875 0.09899875
v 0.00860000 0.00599875 0.06477777
v 0.00829863 -0.01599875 0.10038180
v 0.00699886 -0.01599875 0.10093290
v 0.00499871 -0.01599875 0.10109645
v -0.00499871 0.00599875 0.10109645
v -0.00699886 0.00599875 0.10093290
v -0.00829863 0.00599875 0.10038180
v -0.00819930 0.00736993 0.10025382
v -0.00829863 0.00755364 0.09899875
v -0.00829863 0.00755364 0.06477777
v 0.00860000 0.00599875 0.09899875
v 0.00829863 0.00755364 0.06477777
v 0.00829863 0.00599875 0.10038180
v 0.00699886 0.00599875 0.10093290
v 0.00499871 0.00599875 0.10109645
v -0.00499871 0.00773203 0.10054891
v -0.00699886 0.00764150 0.10046358
v -0.00699886 0.00832044 0.09899875
v -0.00699886 0.00835239 0.09699705
v -0.00699886 0.00835239 0.06477777
v 0.00829863 0.00755364 0.09899875
v 0.00819930 0.00736993 0.10025382
v 0.00714366 0.00826453 0.06477777
v 0.00699886 0.00764150 0.10046358
v 0.00499871 0.00773203 0.10054891
v -0.00499871 0.00853078 0.09899875
v -0.00499871 0.00860000 0.09699705
v -0.00677662 0.00838168 0.06477777
v 0.00699886 0.00835239 0.09699705
v 0.00699886 0.00832044 0.09899875
v 0.00699886 0.00835239 0.06477777
v 0.00499871 0.00853078 0.09899875
v -0.00499871 0.00860000 0.06477777
v 0.00499871 0.00860000 0.09699705
v 0.00499871 0.00860000 0.06477777
f 1 2 3
f 1 3 4
f 1 4 12
f 1 12 5
f 1 5 15
f 1 15 6
f 1 6 8
f 1 8 2
f 2 7 3
f 2 8 19
f 2 19 7
f 3 7 9
f 3 9 10
f 3 10 4
f 4 10 11
f 4 11 23
f 4 23 12
f 5 12 13
f 5 13 14
f 5 14 28
f 5 28 15
f 6 15 30
f 6 30 16
f 6 16 17
f 6 17 8
f 7 18 9
f 7 19 34
f 7 34 18
f 8 17 19
f 9 18 20
f 9 20 21
f 9 21 22
f 9 22 10
f 10 22 11
f 11 22 24
f 11 24 36
f 11 36 23
f 12 23 25
f 12 25 13
f 13 26 14
f 13 25 27
f 13 27 26
f 14 26 39
f 14 39 28
f 15 28 29
f 15 29 30
f 16 30 46
f 16 46 31
f 16 31 32
f 16 32 17
f 17 32 33
f 17 33 19
f 18 34 50
f 18 50 35
f 18 35 20
f 19 33 34
f 20 35 51
f 20 51 62
f 20 62 72
f 20 72 80
f 20 80 85
f 20 85 87
f 20 87 83
f 20 83 75
f 20 75 64
f 20 64 53
f 20 53 43
f 20 43 42
f 20 42 41
f 20 41 40
f 20 40 37
f 20 37 36
f 20 36 24
f 20 24 22
f 20 22 21
f 23 36 37
f 23 37 25
f 25 37 27
f 26 27 38
f 26 38 52
f 26 52 39
f 27 37 40
f 27 40 41
f 27 41 42
f 27 42 43
f 27 43 38
f 28 39 29
f 29 39 44
f 29 44 45
f 29 45 30
f 30 45 46
f 31 46 56
f 31 56 47
f 31 47 32
f 32 47 48
f 32 48 33
f 33 49 34
f 33 48 49
f 34 49 59
f 34 59 50
f 35 50 51
f 38 43 53
f 38 53 63
f 38 63 52
f 39 52 44
f 44 52 54
f 44 54 55
f 44 55 45
f 45 55 56
f 45 56 46
f 47 56 67
f 47 67 57
f 47 57 58
f 47 58 48
f 48 58 59
f 48 59 49
f 50 59 60
f 50 60 61
f 50 61 51
f 51 61 62
f 52 63 65
f 52 65 54
f 53 64 73
f 53 73 63
f 54 65 66
f 54 66 55
f 55 66 67
f 55 67 56
f 57 68 69
f 57 69 58
f 57 67 77
f 57 77 68
f 58 69 60
f 58 60 59
f 60 70 61
f 60 69 70
f 61 70 71
f 61 71 72
f 61 72 62
f 63 73 74
f 63 74 65
f 64 75 73
f 65 74 66
f 66 74 76
f 66 76 67
f 67 76 77
f 68 77 84
f 68 84 78
f 68 78 69
f 69 78 70
f 70 78 79
f 70 79 71
f 71 79 80
f 71 80 72
f 73 81 82
f 73 82 74
f 73 75 81
f 74 82 76
f 75 83 81
f 76 82 84
f 76 84 77
f 78 84 86
f 78 86 79
f 79 85 80
f 79 86 87
f 79 87 85
f 81 86 82
f 81 83 87
f 81 87 86
f 82 86 84

o geometry_1
v 0.00860000 0.00599879 0.06477776
v 0.00829863 0.00755446 0.06477776
v 0.00860000 -0.00599879 0.06477776
v 0.00860000 0.00599879 -0.09898919
v 0.00699886 0.00835419 0.06477776
v 0.00829863 0.00755446 -0.09898919
v 0.00833230 -0.00738105 0.06477776
v 0.00860000 -0.00599879 -0.09898919
v 0.00829863 0.00599879 -0.10036933
v 0.00819930 0.00736926 -0.10025568
v 0.00499871 0.00860000 0.06477776
v 0.00699886 0.00835419 -0.09699203
v 0.00699886 0.00832052 -0.09898919
v 0.00829863 -0.00755446 0.06477776
v 0.00829863 -0.00755446 -0.09898919
v 0.00819930 -0.00736926 -0.10025568
v 0.00829863 -0.00599879 -0.10036933
v 0.00699886 0.00599879 -0.10092139
v 0.00699886 0.00764370 -0.10046676
v -0.00499871 0.00860000 0.06477776
v 0.00499871 0.00860000 -0.09699203
v 0.00499871 0.00853265 -0.09898919
v 0.00815552 -0.00764370 0.06477776
v 0.00699886 -0.00835419 -0.09699203
v 0.00699886 -0.00832052 -0.09898919
v 0.00699886 -0.00764370 -0.10046676
v 0.00699886 -0.00599879 -0.10092139
v 0.00499871 0.00599879 -0.10110000
v 0.00499871 0.00773293 -0.10054795
v -0.00699886 0.00835419 0.06477776
v -0.00499871 0.00860000 -0.09699203
v -0.00499871 0.00853265 -0.09898919
v 0.00699886 -0.00835419 0.06477776
v 0.00499871 -0.00860000 -0.09699203
v 0.00499871 -0.00853265 -0.09898919
v 0.00499871 -0.00773293 -0.10054795
v 0.00499871 -0.00599879 -0.10110000
v -0.00499871 0.00599879 -0.10110000
v -0.00499871 0.00773293 -0.10054795
v -0.00815552 0.00764370 0.06477776
v -0.00699886 0.00835419 -0.09699203
v -0.00699886 0.00832052 -0.09898919
v -0.00699886 0.00764370 -0.10046676
v 0.00499871 -0.00860000 0.06477776
v -0.00499871 -0.00860000 -0.09699203
v -0.00499871 -0.00853265 -0.09898919
v -0.00499871 -0.00773293 -0.10054795
v -0.00499871 -0.00599879 -0.10110000
v -0.00699886 0.00599879 -0.10092139
v -0.00829863 0.00755446 0.06477776
v -0.00829863 0.00755446 -0.09898919
v -0.00819930 0.00736926 -0.10025568
v -0.00499871 -0.00860000 0.06477776
v -0.00699886 -0.00835419 -0.09699203
v -0.00699886 -0.00832052 -0.09898919
v -0.00699886 -0.00764370 -0.10046676
v -0.00699886 -0.00599879 -0.10092139
v -0.00829863 0.00599879 -0.10036933
v -0.00833230 0.00738105 0.06477776
v -0.00860000 0.00599879 -0.09898919
v -0.00699886 -0.00835419 0.06477776
v -0.00829863 -0.00755446 -0.09898919
v -0.00819930 -0.00736926 -0.10025568
v -0.00829863 -0.00599879 -0.10036933
v -0.00860000 0.00599879 0.06477776
v -0.00860000 -0.00599879 -0.09898919
v -0.00829863 -0.00755446 0.06477776
v -0.00860000 -0.00599879 0.06477776
f 88 89 92
f 88 92 98
f 88 98 107
f 88 107 117
f 88 117 127
f 88 127 137
f 88 137 146
f 88 146 152
f 88 152 155
f 88 155 154
f 88 154 148
f 88 148 140
f 88 140 131
f 88 131 120
f 88 120 110
f 88 110 101
f 88 101 94
f 88 94 90
f 88 90 95
f 88 95 91
f 88 91 93
f 88 93 89
f 89 93 99
f 89 99 92
f 90 94 95
f 91 95 104
f 91 104 96
f 91 96 97
f 91 97 93
f 92 99 108
f 92 108 98
f 93 97 100
f 93 100 99
f 94 101 102
f 94 102 95
f 95 102 103
f 95 103 104
f 96 104 114
f 96 114 105
f 96 105 97
f 97 105 106
f 97 106 100
f 98 108 118
f 98 118 107
f 99 100 108
f 100 106 109
f 100 109 108
f 101 110 102
f 102 111 112
f 102 112 103
f 102 110 111
f 103 113 114
f 103 114 104
f 103 112 113
f 105 114 124
f 105 124 115
f 105 115 106
f 106 115 116
f 106 116 109
f 107 118 128
f 107 128 117
f 108 109 119
f 108 119 118
f 109 116 126
f 109 126 119
f 110 120 111
f 111 121 112
f 111 120 131
f 111 131 121
f 112 122 113
f 112 121 122
f 113 123 124
f 113 124 114
f 113 122 123
f 115 124 135
f 115 135 125
f 115 125 126
f 115 126 116
f 117 128 127
f 118 119 129
f 118 129 128
f 119 126 130
f 119 130 129
f 121 132 133
f 121 133 122
f 121 131 140
f 121 140 132
f 122 133 134
f 122 134 123
f 123 134 135
f 123 135 124
f 125 136 130
f 125 130 126
f 125 135 144
f 125 144 136
f 127 128 138
f 127 138 137
f 128 129 138
f 129 130 139
f 129 139 138
f 130 136 139
f 132 141 142
f 132 142 133
f 132 140 148
f 132 148 141
f 133 142 143
f 133 143 134
f 134 143 135
f 135 143 144
f 136 145 139
f 136 144 151
f 136 151 145
f 137 138 146
f 138 139 147
f 138 147 146
f 139 145 147
f 141 149 142
f 141 148 154
f 141 154 149
f 142 149 150
f 142 150 143
f 143 150 144
f 144 150 151
f 145 151 153
f 145 153 147
f 146 147 152
f 147 153 155
f 147 155 152
f 149 153 150
f 149 154 155
f 149 155 153
f 150 153 151

