# Blender 5.1.2
# www.blender.org
mtllib Cup.mtl
o mesh2
v -0.020000 0.050000 -0.000000
v -0.019883 0.050000 -0.002162
v -0.019532 0.050000 -0.004299
v -0.018953 0.050000 -0.006386
v -0.018151 0.050000 -0.008398
v -0.017137 0.050000 -0.010311
v -0.015922 0.050000 -0.012103
v -0.014520 0.050000 -0.013754
v -0.012948 0.050000 -0.015243
v -0.011224 0.050000 -0.016554
v -0.009368 0.050000 -0.017670
v -0.007403 0.050000 -0.018579
v -0.005351 0.050000 -0.019271
v -0.003236 0.050000 -0.019737
v -0.001083 0.050000 -0.019971
v 0.001083 0.050000 -0.019971
v 0.003236 0.050000 -0.019737
v 0.005351 0.050000 -0.019271
v 0.007403 0.050000 -0.018579
v 0.009368 0.050000 -0.017670
v 0.011224 0.050000 -0.016554
v 0.012948 0.050000 -0.015243
v 0.014520 0.050000 -0.013754
v 0.015922 0.050000 -0.012103
v 0.017137 0.050000 -0.010311
v 0.018151 0.050000 -0.008398
v 0.018953 0.050000 -0.006386
v 0.019532 0.050000 -0.004299
v 0.019883 0.050000 -0.002162
v 0.020000 0.050000 -0.000000
v 0.019883 0.050000 0.002162
v 0.019532 0.050000 0.004299
v 0.018953 0.050000 0.006386
v 0.018151 0.050000 0.008398
v 0.017137 0.050000 0.010311
v 0.015922 0.050000 0.012103
v 0.014520 0.050000 0.013754
v 0.012948 0.050000 0.015243
v 0.011224 0.050000 0.016554
v 0.009368 0.050000 0.017670
v 0.007403 0.050000 0.018579
v 0.005351 0.050000 0.019271
v 0.003236 0.050000 0.019737
v 0.001083 0.050000 0.019971
v -0.001083 0.050000 0.019971
v -0.003236 0.050000 0.019737
v -0.005351 0.050000 0.019271
v -0.007403 0.050000 0.018579
v -0.009368 0.050000 0.017670
v -0.011224 0.050000 0.016554
v -0.012948 0.050000 0.015243
v -0.014520 0.050000 0.013754
v -0.015922 0.050000 0.012103
v -0.017137 0.050000 0.010311
v -0.018151 0.050000 0.008398
v -0.018953 0.050000 0.006386
v -0.019532 0.050000 0.004299
v -0.019883 0.050000 0.002162
v -0.015429 0.050000 0.007138
v -0.016110 0.050000 0.005428
v -0.014567 0.050000 0.008764
v -0.013534 0.050000 0.010288
v -0.012342 0.050000 0.011691
v -0.011006 0.050000 0.012957
v -0.009540 0.050000 0.014071
v -0.007963 0.050000 0.015020
v -0.011006 0.050000 -0.012957
v -0.012342 0.050000 -0.011691
v -0.004548 0.050000 0.016380
v -0.002750 0.050000 0.016776
v -0.009540 0.050000 -0.014071
v -0.006292 0.050000 0.015793
v 0.004548 0.050000 0.016380
v 0.002750 0.050000 0.016776
v 0.006292 0.050000 0.015793
v 0.013534 0.050000 -0.010288
v 0.014567 0.050000 -0.008764
v 0.012342 0.050000 -0.011691
v 0.011006 0.050000 -0.012957
v 0.009540 0.050000 -0.014071
v -0.004548 0.050000 -0.016380
v -0.002750 0.050000 -0.016776
v -0.006292 0.050000 -0.015793
v -0.007963 0.050000 -0.015020
v -0.013534 0.050000 -0.010288
v -0.014567 0.050000 -0.008764
v -0.016900 0.050000 0.001838
v -0.017000 0.050000 -0.000000
v -0.016602 0.050000 0.003655
v -0.000920 0.050000 0.016975
v 0.000920 0.050000 0.016975
v 0.015429 0.050000 -0.007138
v 0.007963 0.050000 -0.015020
v 0.000920 0.050000 -0.016975
v 0.002750 0.050000 -0.016776
v -0.000920 0.050000 -0.016975
v -0.015429 0.050000 -0.007138
v -0.016110 0.050000 -0.005428
v -0.016602 0.050000 -0.003655
v -0.016900 0.050000 -0.001838
v 0.006292 0.050000 -0.015793
v 0.004548 0.050000 -0.016380
v 0.007963 0.050000 0.015020
v 0.009540 0.050000 0.014071
v 0.011006 0.050000 0.012957
v 0.012342 0.050000 0.011691
v 0.013534 0.050000 0.010288
v 0.014567 0.050000 0.008764
v 0.015429 0.050000 0.007138
v 0.016110 0.050000 0.005428
v 0.016900 0.050000 -0.001838
v 0.017000 0.050000 0.000000
v 0.016602 0.050000 -0.003655
v 0.016110 0.050000 -0.005428
v 0.016602 0.050000 0.003655
v 0.016900 0.050000 0.001838
v 0.019883 0.000000 0.002162
v 0.019532 0.000000 0.004299
v 0.018953 0.000000 0.006386
v 0.018151 0.000000 0.008398
v 0.017137 0.000000 0.010311
v 0.015922 0.000000 0.012103
v 0.014520 0.000000 0.013754
v 0.012948 0.000000 0.015243
v 0.011224 0.000000 0.016554
v 0.009368 0.000000 0.017670
v 0.007403 0.000000 0.018579
v 0.005351 0.000000 0.019271
v 0.003236 0.000000 0.019737
v 0.001083 0.000000 0.019971
v -0.001083 0.000000 0.019971
v -0.003236 0.000000 0.019737
v -0.005351 0.000000 0.019271
v -0.007403 0.000000 0.018579
v -0.009368 0.000000 0.017670
v -0.011224 0.000000 0.016554
v -0.012948 0.000000 0.015243
v -0.014520 0.000000 0.013754
v -0.015922 0.000000 0.012103
v -0.017137 0.000000 0.010311
v -0.018151 0.000000 0.008398
v -0.018953 0.000000 0.006386
v -0.019532 0.000000 0.004299
v -0.019883 0.000000 0.002162
v -0.020000 0.000000 -0.000000
v -0.019883 0.000000 -0.002162
v -0.019532 0.000000 -0.004299
v -0.018953 0.000000 -0.006386
v -0.018151 0.000000 -0.008398
v -0.017137 0.000000 -0.010311
v -0.015922 0.000000 -0.012103
v -0.014520 0.000000 -0.013754
v -0.012948 0.000000 -0.015243
v -0.011224 0.000000 -0.016554
v -0.009368 0.000000 -0.017670
v -0.007403 0.000000 -0.018579
v -0.005351 0.000000 -0.019271
v -0.003236 0.000000 -0.019737
v -0.001083 0.000000 -0.019971
v 0.001083 0.000000 -0.019971
v 0.003236 0.000000 -0.019737
v 0.005351 0.000000 -0.019271
v 0.007403 0.000000 -0.018579
v 0.009368 0.000000 -0.017670
v 0.011224 0.000000 -0.016554
v 0.012948 0.000000 -0.015243
v 0.014520 0.000000 -0.013754
v 0.015922 0.000000 -0.012103
v 0.017137 0.000000 -0.010311
v 0.018151 0.000000 -0.008398
v 0.018953 0.000000 -0.006386
v 0.019532 0.000000 -0.004299
v 0.019883 0.000000 -0.002162
v 0.020000 0.000000 -0.000000
v 0.000000 0.000000 -0.000000
v 0.019883 0.000000 0.002162
v 0.019532 0.000000 0.004299
v 0.018953 0.000000 0.006386
v 0.018151 0.000000 0.008398
v 0.017137 0.000000 0.010311
v 0.015922 0.000000 0.012103
v 0.014520 0.000000 0.013754
v 0.012948 0.000000 0.015243
v 0.011224 0.000000 0.016554
v 0.009368 0.000000 0.017670
v 0.007403 0.000000 0.018579
v 0.005351 0.000000 0.019271
v 0.003236 0.000000 0.019737
v 0.001083 0.000000 0.019971
v -0.001083 0.000000 0.019971
v -0.003236 0.000000 0.019737
v -0.005351 0.000000 0.019271
v -0.007403 0.000000 0.018579
v -0.009368 0.000000 0.017670
v -0.011224 0.000000 0.016554
v -0.012948 0.000000 0.015243
v -0.014520 0.000000 0.013754
v -0.015922 0.000000 0.012103
v -0.017137 0.000000 0.010311
v -0.018151 0.000000 0.008398
v -0.018953 0.000000 0.006386
v -0.019532 0.000000 0.004299
v -0.019883 0.000000 0.002162
v -0.020000 0.000000 -0.000000
v -0.019883 0.000000 -0.002162
v -0.019532 0.000000 -0.004299
v -0.018953 0.000000 -0.006386
v -0.018151 0.000000 -0.008398
v -0.017137 0.000000 -0.010311
v -0.015922 0.000000 -0.012103
v -0.014520 0.000000 -0.013754
v -0.012948 0.000000 -0.015243
v -0.011224 0.000000 -0.016554
v -0.009368 0.000000 -0.017670
v -0.007403 0.000000 -0.018579
v -0.005351 0.000000 -0.019271
v -0.003236 0.000000 -0.019737
v -0.001083 0.000000 -0.019971
v 0.001083 0.000000 -0.019971
v 0.003236 0.000000 -0.019737
v 0.005351 0.000000 -0.019271
v 0.007403 0.000000 -0.018579
v 0.009368 0.000000 -0.017670
v 0.011224 0.000000 -0.016554
v 0.012948 0.000000 -0.015243
v 0.014520 0.000000 -0.013754
v 0.015922 0.000000 -0.012103
v 0.017137 0.000000 -0.010311
v 0.018151 0.000000 -0.008398
v 0.018953 0.000000 -0.006386
v 0.019532 0.000000 -0.004299
v 0.019883 0.000000 -0.002162
v 0.020000 0.000000 -0.000000
v -0.020000 0.050000 -0.000000
v -0.019883 0.050000 -0.002162
v -0.019532 0.050000 -0.004299
v -0.018953 0.050000 -0.006386
v -0.018151 0.050000 -0.008398
v -0.017137 0.050000 -0.010311
v -0.015922 0.050000 -0.012103
v -0.014520 0.050000 -0.013754
v -0.012948 0.050000 -0.015243
v -0.011224 0.050000 -0.016554
v -0.009368 0.050000 -0.017670
v -0.007403 0.050000 -0.018579
v -0.005351 0.050000 -0.019271
v -0.003236 0.050000 -0.019737
v -0.001083 0.050000 -0.019971
v 0.001083 0.050000 -0.019971
v 0.003236 0.050000 -0.019737
v 0.005351 0.050000 -0.019271
v 0.007403 0.050000 -0.018579
v 0.009368 0.050000 -0.017670
v 0.011224 0.050000 -0.016554
v 0.012948 0.050000 -0.015243
v 0.014520 0.050000 -0.013754
v 0.015922 0.050000 -0.012103
v 0.017137 0.050000 -0.010311
v 0.018151 0.050000 -0.008398
v 0.018953 0.050000 -0.006386
v 0.019532 0.050000 -0.004299
v 0.019883 0.050000 -0.002162
v 0.020000 0.050000 -0.000000
v 0.019883 0.050000 0.002162
v 0.019532 0.050000 0.004299
v 0.018953 0.050000 0.006386
v 0.018151 0.050000 0.008398
v 0.017137 0.050000 0.010311
v 0.015922 0.050000 0.012103
v 0.014520 0.050000 0.013754
v 0.012948 0.050000 0.015243
v 0.011224 0.050000 0.016554
v 0.009368 0.050000 0.017670
v 0.007403 0.050000 0.018579
v 0.005351 0.050000 0.019271
v 0.003236 0.050000 0.019737
v 0.001083 0.050000 0.019971
v -0.001083 0.050000 0.019971
v -0.003236 0.050000 0.019737
v -0.005351 0.050000 0.019271
v -0.007403 0.050000 0.018579
v -0.009368 0.050000 0.017670
v -0.011224 0.050000 0.016554
v -0.012948 0.050000 0.015243
v -0.014520 0.050000 0.013754
v -0.015922 0.050000 0.012103
v -0.017137 0.050000 0.010311
v -0.018151 0.050000 0.008398
v -0.018953 0.050000 0.006386
v -0.019532 0.050000 0.004299
v -0.019883 0.050000 0.002162
v -0.015429 0.050000 0.007138
v -0.016110 0.050000 0.005428
v -0.014567 0.050000 0.008764
v -0.013534 0.050000 0.010288
v -0.012342 0.050000 0.011691
v -0.011006 0.050000 0.012957
v -0.009540 0.050000 0.014071
v -0.007963 0.050000 0.015020
v -0.011006 0.050000 -0.012957
v -0.012342 0.050000 -0.011691
v -0.004548 0.050000 0.016380
v -0.002750 0.050000 0.016776
v -0.009540 0.050000 -0.014071
v -0.006292 0.050000 0.015793
v 0.004548 0.050000 0.016380
v 0.002750 0.050000 0.016776
v 0.006292 0.050000 0.015793
v 0.013534 0.050000 -0.010288
v 0.014567 0.050000 -0.008764
v 0.012342 0.050000 -0.011691
v 0.011006 0.050000 -0.012957
v 0.009540 0.050000 -0.014071
v -0.004548 0.050000 -0.016380
v -0.002750 0.050000 -0.016776
v -0.006292 0.050000 -0.015793
v -0.007963 0.050000 -0.015020
v -0.013534 0.050000 -0.010288
v -0.014567 0.050000 -0.008764
v -0.016900 0.050000 0.001838
v -0.017000 0.050000 -0.000000
v -0.016602 0.050000 0.003655
v -0.000920 0.050000 0.016975
v 0.000920 0.050000 0.016975
v 0.015429 0.050000 -0.007138
v 0.007963 0.050000 -0.015020
v 0.000920 0.050000 -0.016975
v 0.002750 0.050000 -0.016776
v -0.000920 0.050000 -0.016975
v -0.015429 0.050000 -0.007138
v -0.016110 0.050000 -0.005428
v -0.016602 0.050000 -0.003655
v -0.016900 0.050000 -0.001838
v 0.006292 0.050000 -0.015793
v 0.004548 0.050000 -0.016380
v 0.007963 0.050000 0.015020
v 0.009540 0.050000 0.014071
v 0.011006 0.050000 0.012957
v 0.012342 0.050000 0.011691
v 0.013534 0.050000 0.010288
v 0.014567 0.050000 0.008764
v 0.015429 0.050000 0.007138
v 0.016110 0.050000 0.005428
v 0.016900 0.050000 -0.001838
v 0.017000 0.050000 0.000000
v 0.016602 0.050000 -0.003655
v 0.016110 0.050000 -0.005428
v 0.016602 0.050000 0.003655
v 0.016900 0.050000 0.001838
v 0.017000 0.003000 -0.000000
v 0.016900 0.003000 0.001838
v 0.016602 0.003000 0.003655
v 0.016110 0.003000 0.005428
v 0.015429 0.003000 0.007138
v 0.014567 0.003000 0.008764
v 0.013534 0.003000 0.010288
v 0.012342 0.003000 0.011691
v 0.011006 0.003000 0.012957
v 0.009540 0.003000 0.014071
v 0.007963 0.003000 0.015020
v 0.006292 0.003000 0.015793
v 0.004548 0.003000 0.016380
v 0.002750 0.003000 0.016776
v 0.000920 0.003000 0.016975
v -0.000920 0.003000 0.016975
v -0.002750 0.003000 0.016776
v -0.004548 0.003000 0.016380
v -0.006292 0.003000 0.015793
v -0.007963 0.003000 0.015020
v -0.009540 0.003000 0.014071
v -0.011006 0.003000 0.012957
v -0.012342 0.003000 0.011691
v -0.013534 0.003000 0.010288
v -0.014567 0.003000 0.008764
v -0.015429 0.003000 0.007138
v -0.016110 0.003000 0.005428
v -0.016602 0.003000 0.003655
v -0.016900 0.003000 0.001838
v -0.017000 0.003000 -0.000000
v -0.016900 0.003000 -0.001838
v -0.016602 0.003000 -0.003655
v -0.016110 0.003000 -0.005428
v -0.015429 0.003000 -0.007138
v -0.014567 0.003000 -0.008764
v -0.013534 0.003000 -0.010288
v -0.012342 0.003000 -0.011691
v -0.011006 0.003000 -0.012957
v -0.009540 0.003000 -0.014071
v -0.007963 0.003000 -0.015020
v -0.006292 0.003000 -0.015793
v -0.004548 0.003000 -0.016380
v -0.002750 0.003000 -0.016776
v -0.000920 0.003000 -0.016975
v 0.000920 0.003000 -0.016975
v 0.002750 0.003000 -0.016776
v 0.004548 0.003000 -0.016380
v 0.006292 0.003000 -0.015793
v 0.007963 0.003000 -0.015020
v 0.009540 0.003000 -0.014071
v 0.011006 0.003000 -0.012957
v 0.012342 0.003000 -0.011691
v 0.013534 0.003000 -0.010288
v 0.014567 0.003000 -0.008764
v 0.015429 0.003000 -0.007138
v 0.016110 0.003000 -0.005428
v 0.016602 0.003000 -0.003655
v 0.016900 0.003000 -0.001838
v 0.017000 0.003000 -0.000000
v 0.016900 0.003000 0.001838
v 0.016602 0.003000 0.003655
v 0.016110 0.003000 0.005428
v 0.015429 0.003000 0.007138
v 0.014567 0.003000 0.008764
v 0.013534 0.003000 0.010288
v 0.012342 0.003000 0.011691
v 0.011006 0.003000 0.012957
v 0.009540 0.003000 0.014071
v 0.007963 0.003000 0.015020
v 0.006292 0.003000 0.015793
v 0.004548 0.003000 0.016380
v 0.002750 0.003000 0.016776
v 0.000920 0.003000 0.016975
v -0.000920 0.003000 0.016975
v -0.002750 0.003000 0.016776
v -0.004548 0.003000 0.016380
v -0.006292 0.003000 0.015793
v -0.007963 0.003000 0.015020
v -0.009540 0.003000 0.014071
v -0.011006 0.003000 0.012957
v -0.012342 0.003000 0.011691
v -0.013534 0.003000 0.010288
v -0.014567 0.003000 0.008764
v -0.015429 0.003000 0.007138
v -0.016110 0.003000 0.005428
v -0.016602 0.003000 0.003655
v -0.016900 0.003000 0.001838
v -0.017000 0.003000 -0.000000
v -0.016900 0.003000 -0.001838
v -0.016602 0.003000 -0.003655
v -0.016110 0.003000 -0.005428
v -0.015429 0.003000 -0.007138
v -0.014567 0.003000 -0.008764
v -0.013534 0.003000 -0.010288
v -0.012342 0.003000 -0.011691
v -0.011006 0.003000 -0.012957
v -0.009540 0.003000 -0.014071
v -0.007963 0.003000 -0.015020
v -0.006292 0.003000 -0.015793
v -0.004548 0.003000 -0.016380
v -0.002750 0.003000 -0.016776
v -0.000920 0.003000 -0.016975
v 0.000920 0.003000 -0.016975
v 0.002750 0.003000 -0.016776
v 0.004548 0.003000 -0.016380
v 0.006292 0.003000 -0.015793
v 0.007963 0.003000 -0.015020
v 0.009540 0.003000 -0.014071
v 0.011006 0.003000 -0.012957
v 0.012342 0.003000 -0.011691
v 0.013534 0.003000 -0.010288
v 0.014567 0.003000 -0.008764
v 0.015429 0.003000 -0.007138
v 0.016110 0.003000 -0.005428
v 0.016602 0.003000 -0.003655
v 0.016900 0.003000 -0.001838
v 0.000000 0.003000 -0.000000
vn -0.0000 1.0000 -0.0000
vn -0.0000 -1.0000 -0.0000
vn -1.0000 -0.0000 -0.0000
vn -0.9941 -0.0000 -0.1081
vn -0.9766 -0.0000 -0.2150
vn -0.9477 -0.0000 -0.3193
vn -0.9076 -0.0000 -0.4199
vn -0.8569 -0.0000 -0.5155
vn -0.7961 -0.0000 -0.6052
vn -0.7260 -0.0000 -0.6877
vn -0.6474 -0.0000 -0.7622
vn -0.5612 -0.0000 -0.8277
vn -0.4684 -0.0000 -0.8835
vn -0.3701 -0.0000 -0.9290
vn -0.2675 -0.0000 -0.9635
vn -0.1618 -0.0000 -0.9868
vn -0.0542 -0.0000 -0.9985
vn 0.0542 -0.0000 -0.9985
vn 0.1618 -0.0000 -0.9868
vn 0.2675 -0.0000 -0.9635
vn 0.3701 -0.0000 -0.9290
vn 0.4684 -0.0000 -0.8835
vn 0.5612 -0.0000 -0.8277
vn 0.6474 -0.0000 -0.7622
vn 0.7260 -0.0000 -0.6877
vn 0.7961 -0.0000 -0.6052
vn 0.8569 -0.0000 -0.5155
vn 0.9076 -0.0000 -0.4199
vn 0.9477 -0.0000 -0.3193
vn 0.9766 -0.0000 -0.2150
vn 0.9941 -0.0000 -0.1081
vn 1.0000 -0.0000 -0.0000
vn 0.9941 -0.0000 0.1081
vn 0.9766 -0.0000 0.2150
vn 0.9477 -0.0000 0.3193
vn 0.9076 -0.0000 0.4199
vn 0.8569 -0.0000 0.5155
vn 0.7961 -0.0000 0.6052
vn 0.7260 -0.0000 0.6877
vn 0.6474 -0.0000 0.7622
vn 0.5612 -0.0000 0.8277
vn 0.4684 -0.0000 0.8835
vn 0.3701 -0.0000 0.9290
vn 0.2675 -0.0000 0.9635
vn 0.1618 -0.0000 0.9868
vn 0.0542 -0.0000 0.9985
vn -0.0542 -0.0000 0.9985
vn -0.1618 -0.0000 0.9868
vn -0.2675 -0.0000 0.9635
vn -0.3701 -0.0000 0.9290
vn -0.4684 -0.0000 0.8835
vn -0.5612 -0.0000 0.8277
vn -0.6474 -0.0000 0.7622
vn -0.7260 -0.0000 0.6877
vn -0.7961 -0.0000 0.6052
vn -0.8569 -0.0000 0.5155
vn -0.9076 -0.0000 0.4199
vn -0.9477 -0.0000 0.3193
vn -0.9766 -0.0000 0.2150
vn -0.9941 -0.0000 0.1081
vn -0.0541 -0.0000 -0.9985
vn 0.0541 -0.0000 -0.9985
vn 0.0541 -0.0000 0.9985
vn -0.0541 -0.0000 0.9985
s 1
usemtl 0.615686_0.811765_0.929412_0.000000_0.001
f 55//1 59//1 60//1
f 54//1 61//1 59//1
f 53//1 62//1 61//1
f 52//1 63//1 62//1
f 59//1 55//1 54//1
f 62//1 53//1 52//1
f 61//1 54//1 53//1
f 51//1 64//1 63//1
f 50//1 65//1 64//1
f 50//1 49//1 66//1
f 10//1 9//1 67//1
f 9//1 8//1 68//1
f 63//1 52//1 51//1
f 66//1 65//1 50//1
f 48//1 47//1 69//1
f 46//1 70//1 69//1
f 11//1 10//1 71//1
f 68//1 67//1 9//1
f 57//1 56//1 60//1
f 64//1 51//1 50//1
f 49//1 48//1 72//1
f 69//1 47//1 46//1
f 42//1 73//1 74//1
f 42//1 41//1 75//1
f 24//1 76//1 77//1
f 24//1 23//1 78//1
f 23//1 22//1 79//1
f 22//1 21//1 80//1
f 13//1 81//1 82//1
f 13//1 12//1 83//1
f 11//1 84//1 83//1
f 67//1 71//1 10//1
f 7//1 85//1 68//1
f 7//1 6//1 86//1
f 58//1 87//1 88//1
f 58//1 57//1 89//1
f 60//1 56//1 55//1
f 69//1 72//1 48//1
f 45//1 90//1 70//1
f 45//1 44//1 91//1
f 43//1 74//1 91//1
f 75//1 73//1 42//1
f 25//1 77//1 92//1
f 78//1 76//1 24//1
f 80//1 79//1 22//1
f 21//1 20//1 93//1
f 16//1 94//1 95//1
f 15//1 96//1 94//1
f 83//1 81//1 13//1
f 71//1 84//1 11//1
f 86//1 85//1 7//1
f 5//1 97//1 86//1
f 4//1 98//1 97//1
f 3//1 99//1 98//1
f 2//1 100//1 99//1
f 2//1 1//1 88//1
f 89//1 87//1 58//1
f 72//1 66//1 49//1
f 91//1 90//1 45//1
f 74//1 43//1 42//1
f 77//1 25//1 24//1
f 93//1 80//1 21//1
f 19//1 101//1 93//1
f 19//1 18//1 102//1
f 94//1 16//1 15//1
f 15//1 14//1 82//1
f 83//1 12//1 11//1
f 86//1 6//1 5//1
f 98//1 4//1 3//1
f 88//1 100//1 2//1
f 60//1 89//1 57//1
f 91//1 44//1 43//1
f 41//1 40//1 103//1
f 40//1 39//1 104//1
f 38//1 105//1 104//1
f 37//1 106//1 105//1
f 36//1 107//1 106//1
f 35//1 108//1 107//1
f 34//1 109//1 108//1
f 34//1 33//1 110//1
f 29//1 111//1 112//1
f 28//1 113//1 111//1
f 27//1 114//1 113//1
f 26//1 92//1 114//1
f 79//1 78//1 23//1
f 102//1 101//1 19//1
f 17//1 95//1 102//1
f 82//1 96//1 15//1
f 68//1 8//1 7//1
f 99//1 3//1 2//1
f 70//1 46//1 45//1
f 104//1 103//1 40//1
f 105//1 38//1 37//1
f 107//1 36//1 35//1
f 110//1 109//1 34//1
f 33//1 32//1 115//1
f 111//1 29//1 28//1
f 114//1 27//1 26//1
f 93//1 20//1 19//1
f 95//1 17//1 16//1
f 97//1 5//1 4//1
f 103//1 75//1 41//1
f 106//1 37//1 36//1
f 115//1 110//1 33//1
f 113//1 28//1 27//1
f 102//1 18//1 17//1
f 88//1 1//1 58//1
f 108//1 35//1 34//1
f 92//1 26//1 25//1
f 104//1 39//1 38//1
f 31//1 116//1 115//1
f 31//1 30//1 112//1
f 82//1 14//1 13//1
f 112//1 116//1 31//1
f 115//1 32//1 31//1
f 112//1 30//1 29//1
f 175//2 117//2 118//2
f 118//2 119//2 175//2
f 119//2 120//2 175//2
f 120//2 121//2 175//2
f 121//2 122//2 175//2
f 122//2 123//2 175//2
f 123//2 124//2 175//2
f 124//2 125//2 175//2
f 125//2 126//2 175//2
f 126//2 127//2 175//2
f 127//2 128//2 175//2
f 128//2 129//2 175//2
f 129//2 130//2 175//2
f 130//2 131//2 175//2
f 131//2 132//2 175//2
f 132//2 133//2 175//2
f 133//2 134//2 175//2
f 134//2 135//2 175//2
f 135//2 136//2 175//2
f 136//2 137//2 175//2
f 137//2 138//2 175//2
f 138//2 139//2 175//2
f 139//2 140//2 175//2
f 140//2 141//2 175//2
f 141//2 142//2 175//2
f 142//2 143//2 175//2
f 143//2 144//2 175//2
f 144//2 145//2 175//2
f 145//2 146//2 175//2
f 146//2 147//2 175//2
f 147//2 148//2 175//2
f 148//2 149//2 175//2
f 149//2 150//2 175//2
f 150//2 151//2 175//2
f 151//2 152//2 175//2
f 152//2 153//2 175//2
f 153//2 154//2 175//2
f 154//2 155//2 175//2
f 155//2 156//2 175//2
f 156//2 157//2 175//2
f 157//2 158//2 175//2
f 158//2 159//2 175//2
f 159//2 160//2 175//2
f 160//2 161//2 175//2
f 161//2 162//2 175//2
f 162//2 163//2 175//2
f 163//2 164//2 175//2
f 164//2 165//2 175//2
f 165//2 166//2 175//2
f 166//2 167//2 175//2
f 167//2 168//2 175//2
f 168//2 169//2 175//2
f 169//2 170//2 175//2
f 170//2 171//2 175//2
f 171//2 172//2 175//2
f 172//2 173//2 175//2
f 173//2 174//2 175//2
f 174//2 117//2 175//2
f 204//3 234//3 235//4
f 205//4 235//4 236//5
f 206//5 236//5 237//6
f 207//6 237//6 238//7
f 208//7 238//7 239//8
f 209//8 239//8 240//9
f 210//9 240//9 241//10
f 211//10 241//10 242//11
f 212//11 242//11 243//12
f 213//12 243//12 244//13
f 214//13 244//13 245//14
f 215//14 245//14 246//15
f 216//15 246//15 247//16
f 217//16 247//16 248//17
f 218//17 248//17 249//18
f 219//18 249//18 250//19
f 220//19 250//19 251//20
f 221//20 251//20 252//21
f 222//21 252//21 253//22
f 223//22 253//22 254//23
f 224//23 254//23 255//24
f 225//24 255//24 256//25
f 226//25 256//25 257//26
f 227//26 257//26 258//27
f 228//27 258//27 259//28
f 229//28 259//28 260//29
f 230//29 260//29 261//30
f 231//30 261//30 262//31
f 232//31 262//31 263//32
f 233//32 263//32 264//33
f 176//33 264//33 265//34
f 177//34 265//34 266//35
f 178//35 266//35 267//36
f 179//36 267//36 268//37
f 180//37 268//37 269//38
f 181//38 269//38 270//39
f 182//39 270//39 271//40
f 183//40 271//40 272//41
f 184//41 272//41 273//42
f 185//42 273//42 274//43
f 186//43 274//43 275//44
f 187//44 275//44 276//45
f 188//45 276//45 277//46
f 189//46 277//46 278//47
f 190//47 278//47 279//48
f 191//48 279//48 280//49
f 192//49 280//49 281//50
f 193//50 281//50 282//51
f 194//51 282//51 283//52
f 195//52 283//52 284//53
f 196//53 284//53 285//54
f 197//54 285//54 286//55
f 198//55 286//55 287//56
f 199//56 287//56 288//57
f 200//57 288//57 289//58
f 201//58 289//58 290//59
f 202//59 290//59 291//60
f 203//60 291//60 234//3
f 234//3 204//3 203//60
f 291//60 203//60 202//59
f 290//59 202//59 201//58
f 289//58 201//58 200//57
f 288//57 200//57 199//56
f 287//56 199//56 198//55
f 286//55 198//55 197//54
f 285//54 197//54 196//53
f 284//53 196//53 195//52
f 283//52 195//52 194//51
f 282//51 194//51 193//50
f 281//50 193//50 192//49
f 280//49 192//49 191//48
f 279//48 191//48 190//47
f 278//47 190//47 189//46
f 277//46 189//46 188//45
f 276//45 188//45 187//44
f 275//44 187//44 186//43
f 274//43 186//43 185//42
f 273//42 185//42 184//41
f 272//41 184//41 183//40
f 271//40 183//40 182//39
f 270//39 182//39 181//38
f 269//38 181//38 180//37
f 268//37 180//37 179//36
f 267//36 179//36 178//35
f 266//35 178//35 177//34
f 265//34 177//34 176//33
f 264//33 176//33 233//32
f 263//32 233//32 232//31
f 262//31 232//31 231//30
f 261//30 231//30 230//29
f 260//29 230//29 229//28
f 259//28 229//28 228//27
f 258//27 228//27 227//26
f 257//26 227//26 226//25
f 256//25 226//25 225//24
f 255//24 225//24 224//23
f 254//23 224//23 223//22
f 253//22 223//22 222//21
f 252//21 222//21 221//20
f 251//20 221//20 220//19
f 250//19 220//19 219//18
f 249//18 219//18 218//17
f 248//17 218//17 217//16
f 247//16 217//16 216//15
f 246//15 216//15 215//14
f 245//14 215//14 214//13
f 244//13 214//13 213//12
f 243//12 213//12 212//11
f 242//11 212//11 211//10
f 241//10 211//10 210//9
f 240//9 210//9 209//8
f 239//8 209//8 208//7
f 238//7 208//7 207//6
f 237//6 207//6 206//5
f 236//5 206//5 205//4
f 235//4 205//4 204//3
f 349//4 345//3 350//3
f 348//5 349//4 351//4
f 343//6 348//5 352//5
f 342//7 343//6 353//6
f 341//8 342//7 354//7
f 340//9 341//8 355//8
f 339//10 340//9 356//9
f 338//11 339//10 357//10
f 337//12 338//11 358//11
f 336//13 337//12 359//12
f 308//14 336//13 360//13
f 306//15 308//14 361//14
f 307//16 306//15 362//15
f 324//61 307//16 363//16
f 323//62 324//61 364//61
f 303//19 323//62 365//62
f 302//20 303//19 366//19
f 305//21 302//20 367//20
f 299//22 305//21 368//21
f 298//23 299//22 369//22
f 297//24 298//23 370//23
f 296//25 297//24 371//24
f 295//26 296//25 372//25
f 294//27 295//26 373//26
f 292//28 294//27 374//27
f 293//29 292//28 375//28
f 322//30 293//29 376//29
f 320//31 322//30 377//30
f 321//32 320//31 378//31
f 333//33 321//32 379//32
f 332//34 333//33 380//33
f 331//35 332//34 381//34
f 330//36 331//35 382//35
f 319//37 330//36 383//36
f 318//38 319//37 384//37
f 301//39 318//38 385//38
f 300//40 301//39 386//39
f 304//41 300//40 387//40
f 317//42 304//41 388//41
f 316//43 317//42 389//42
f 314//44 316//43 390//43
f 315//45 314//44 391//44
f 329//63 315//45 392//45
f 327//64 329//63 393//63
f 328//48 327//64 394//64
f 335//49 328//48 395//48
f 334//50 335//49 396//49
f 326//51 334//50 397//50
f 313//52 326//51 398//51
f 312//53 313//52 399//52
f 311//54 312//53 400//53
f 309//55 311//54 401//54
f 310//56 309//55 402//55
f 325//57 310//56 403//56
f 347//58 325//57 404//57
f 346//59 347//58 405//58
f 344//60 346//59 406//59
f 345//3 344//60 407//60
f 407//60 350//3 345//3
f 406//59 407//60 344//60
f 405//58 406//59 346//59
f 404//57 405//58 347//58
f 403//56 404//57 325//57
f 402//55 403//56 310//56
f 401//54 402//55 309//55
f 400//53 401//54 311//54
f 399//52 400//53 312//53
f 398//51 399//52 313//52
f 397//50 398//51 326//51
f 396//49 397//50 334//50
f 395//48 396//49 335//49
f 394//64 395//48 328//48
f 393//63 394//64 327//64
f 392//45 393//63 329//63
f 391//44 392//45 315//45
f 390//43 391//44 314//44
f 389//42 390//43 316//43
f 388//41 389//42 317//42
f 387//40 388//41 304//41
f 386//39 387//40 300//40
f 385//38 386//39 301//39
f 384//37 385//38 318//38
f 383//36 384//37 319//37
f 382//35 383//36 330//36
f 381//34 382//35 331//35
f 380//33 381//34 332//34
f 379//32 380//33 333//33
f 378//31 379//32 321//32
f 377//30 378//31 320//31
f 376//29 377//30 322//30
f 375//28 376//29 293//29
f 374//27 375//28 292//28
f 373//26 374//27 294//27
f 372//25 373//26 295//26
f 371//24 372//25 296//25
f 370//23 371//24 297//24
f 369//22 370//23 298//23
f 368//21 369//22 299//22
f 367//20 368//21 305//21
f 366//19 367//20 302//20
f 365//62 366//19 303//19
f 364//61 365//62 323//62
f 363//16 364//61 324//61
f 362//15 363//16 307//16
f 361//14 362//15 306//15
f 360//13 361//14 308//14
f 359//12 360//13 336//13
f 358//11 359//12 337//12
f 357//10 358//11 338//11
f 356//9 357//10 339//10
f 355//8 356//9 340//9
f 354//7 355//8 341//8
f 353//6 354//7 342//7
f 352//5 353//6 343//6
f 351//4 352//5 348//5
f 350//3 351//4 349//4
f 466//1 465//1 464//1
f 464//1 463//1 466//1
f 463//1 462//1 466//1
f 462//1 461//1 466//1
f 461//1 460//1 466//1
f 460//1 459//1 466//1
f 459//1 458//1 466//1
f 458//1 457//1 466//1
f 457//1 456//1 466//1
f 456//1 455//1 466//1
f 455//1 454//1 466//1
f 454//1 453//1 466//1
f 453//1 452//1 466//1
f 452//1 451//1 466//1
f 451//1 450//1 466//1
f 450//1 449//1 466//1
f 449//1 448//1 466//1
f 448//1 447//1 466//1
f 447//1 446//1 466//1
f 446//1 445//1 466//1
f 445//1 444//1 466//1
f 444//1 443//1 466//1
f 443//1 442//1 466//1
f 442//1 441//1 466//1
f 441//1 440//1 466//1
f 440//1 439//1 466//1
f 439//1 438//1 466//1
f 438//1 437//1 466//1
f 437//1 436//1 466//1
f 436//1 435//1 466//1
f 435//1 434//1 466//1
f 434//1 433//1 466//1
f 433//1 432//1 466//1
f 432//1 431//1 466//1
f 431//1 430//1 466//1
f 430//1 429//1 466//1
f 429//1 428//1 466//1
f 428//1 427//1 466//1
f 427//1 426//1 466//1
f 426//1 425//1 466//1
f 425//1 424//1 466//1
f 424//1 423//1 466//1
f 423//1 422//1 466//1
f 422//1 421//1 466//1
f 421//1 420//1 466//1
f 420//1 419//1 466//1
f 419//1 418//1 466//1
f 418//1 417//1 466//1
f 417//1 416//1 466//1
f 416//1 415//1 466//1
f 415//1 414//1 466//1
f 414//1 413//1 466//1
f 413//1 412//1 466//1
f 412//1 411//1 466//1
f 411//1 410//1 466//1
f 410//1 409//1 466//1
f 409//1 408//1 466//1
f 408//1 465//1 466//1
