# OBJ generated by ONSHAPE BY PTC INC, 1.218 Units = meters
mtllib Cup_for_obj_file.mtl
g Cup_for_obj_file
v 0.00216238 0 -0.0198828 
v 0.00429941 0 -0.0195324 
v 0.00638603 0 -0.0189531 
v 0.00839778 0 -0.0181515 
v 0.0103111 0 -0.0171371 
v 0.0121035 0 -0.0159219 
v 0.013754 0 -0.0145199 
v 0.0152432 0 -0.0129477 
v 0.0165538 0 -0.0112237 
v 0.0176702 0 -0.00936817 
v 0.0185795 0 -0.00740276 
v 0.019271 0 -0.00535057 
v 0.0197365 0 -0.00323564 
v 0.0199707 0 -0.00108278 
v 0.0199707 0 0.00108278 
v 0.0197365 0 0.00323564 
v 0.019271 0 0.00535057 
v 0.0185795 0 0.00740276 
v 0.0176702 0 0.00936817 
v 0.0165538 0 0.0112237 
v 0.0152432 0 0.0129477 
v 0.013754 0 0.0145199 
v 0.0121035 0 0.0159219 
v 0.0103111 0 0.0171371 
v 0.00839778 0 0.0181515 
v 0.00638603 0 0.0189531 
v 0.00429941 0 0.0195324 
v 0.00216238 0 0.0198828 
v 2.44929e-18 0 0.02 
v -0.00216238 0 0.0198828 
v -0.00429941 0 0.0195324 
v -0.00638603 0 0.0189531 
v -0.00839778 0 0.0181515 
v -0.0103111 0 0.0171371 
v -0.0121035 0 0.0159219 
v -0.013754 0 0.0145199 
v -0.0152432 0 0.0129477 
v -0.0165538 0 0.0112237 
v -0.0176702 0 0.00936817 
v -0.0185795 0 0.00740276 
v -0.019271 0 0.00535057 
v -0.0197365 0 0.00323564 
v -0.0199707 0 0.00108278 
v -0.0199707 0 -0.00108278 
v -0.0197365 0 -0.00323564 
v -0.019271 0 -0.00535057 
v -0.0185795 0 -0.00740276 
v -0.0176702 0 -0.00936817 
v -0.0165538 0 -0.0112237 
v -0.0152432 0 -0.0129477 
v -0.013754 0 -0.0145199 
v -0.0121035 0 -0.0159219 
v -0.0103111 0 -0.0171371 
v -0.00839778 0 -0.0181515 
v -0.00638603 0 -0.0189531 
v -0.00429941 0 -0.0195324 
v -0.00216238 0 -0.0198828 
v 0 0 -0.02 
v 0 0 1.22465e-18 
v -4.89859e-18 0.05 -0.02 
v 0.00216238 0.05 -0.0198828 
v 0.00429941 0.05 -0.0195324 
v 0.00638603 0.05 -0.0189531 
v 0.00839778 0.05 -0.0181515 
v 0.0103111 0.05 -0.0171371 
v 0.0121035 0.05 -0.0159219 
v 0.013754 0.05 -0.0145199 
v 0.0152432 0.05 -0.0129477 
v 0.0165538 0.05 -0.0112237 
v 0.0176702 0.05 -0.00936817 
v 0.0185795 0.05 -0.00740276 
v 0.019271 0.05 -0.00535057 
v 0.0197365 0.05 -0.00323564 
v 0.0199707 0.05 -0.00108278 
v 0.0199707 0.05 0.00108278 
v 0.0197365 0.05 0.00323564 
v 0.019271 0.05 0.00535057 
v 0.0185795 0.05 0.00740276 
v 0.0176702 0.05 0.00936817 
v 0.0165538 0.05 0.0112237 
v 0.0152432 0.05 0.0129477 
v 0.013754 0.05 0.0145199 
v 0.0121035 0.05 0.0159219 
v 0.0103111 0.05 0.0171371 
v 0.00839778 0.05 0.0181515 
v 0.00638603 0.05 0.0189531 
v 0.00429941 0.05 0.0195324 
v 0.00216238 0.05 0.0198828 
v 2.44929e-18 0.05 0.02 
v -0.00216238 0.05 0.0198828 
v -0.00429941 0.05 0.0195324 
v -0.00638603 0.05 0.0189531 
v -0.00839778 0.05 0.0181515 
v -0.0103111 0.05 0.0171371 
v -0.0121035 0.05 0.0159219 
v -0.013754 0.05 0.0145199 
v -0.0152432 0.05 0.0129477 
v -0.0165538 0.05 0.0112237 
v -0.0176702 0.05 0.00936817 
v -0.0185795 0.05 0.00740276 
v -0.019271 0.05 0.00535057 
v -0.0197365 0.05 0.00323564 
v -0.0199707 0.05 0.00108278 
v -0.0199707 0.05 -0.00108278 
v -0.0197365 0.05 -0.00323564 
v -0.019271 0.05 -0.00535057 
v -0.0185795 0.05 -0.00740276 
v -0.0176702 0.05 -0.00936817 
v -0.0165538 0.05 -0.0112237 
v -0.0152432 0.05 -0.0129477 
v -0.013754 0.05 -0.0145199 
v -0.0121035 0.05 -0.0159219 
v -0.0103111 0.05 -0.0171371 
v -0.00839778 0.05 -0.0181515 
v -0.00638603 0.05 -0.0189531 
v -0.00429941 0.05 -0.0195324 
v -0.00216238 0.05 -0.0198828 
v -0.00876442 0.05 -0.0145666 
v -0.00713811 0.05 -0.0154288 
v -0.010288 0.05 -0.0135336 
v -0.00542813 0.05 -0.0161101 
v -0.0116909 0.05 -0.0123419 
v -0.0140707 0.05 -0.00954018 
v -0.0129568 0.05 -0.0110056 
v -0.0150197 0.05 -0.00796294 
v 0.0129568 0.05 -0.0110056 
v 0.0116909 0.05 -0.0123419 
v 0.010288 0.05 -0.0135336 
v 0.00876442 0.05 -0.0145666 
v -0.0157926 0.05 -0.00629235 
v 0.0163803 0.05 -0.00454798 
v 0.0167761 0.05 -0.00275029 
v 0.0157926 0.05 -0.00629235 
v 0.0140707 0.05 -0.00954018 
v 0.00713811 0.05 -0.0154288 
v -0.0163803 0.05 -0.00454798 
v -0.0167761 0.05 -0.00275029 
v -0.0163803 0.05 0.00454798 
v -0.0167761 0.05 0.00275029 
v -0.0157926 0.05 0.00629235 
v 0.0150197 0.05 -0.00796294 
v 0.00542813 0.05 -0.0161101 
v 0.0036545 0.05 -0.0166025 
v 0.00183802 0.05 -0.0169003 
v 2.0819e-18 0.05 -0.017 
v -0.00183802 0.05 -0.0169003 
v -0.0036545 0.05 -0.0166025 
v -0.0169751 0.05 -0.000920361 
v -0.0169751 0.05 0.000920361 
v 0.00542813 0.05 0.0161101 
v 0.0036545 0.05 0.0166025 
v 0.00713811 0.05 0.0154288 
v 0.00876442 0.05 0.0145666 
v 0.010288 0.05 0.0135336 
v 0.0116909 0.05 0.0123419 
v 0.0129568 0.05 0.0110056 
v 0.0140707 0.05 0.00954018 
v 0.0169751 0.05 0.000920361 
v 0.0167761 0.05 0.00275029 
v 0.0169751 0.05 -0.000920361 
v -0.0129568 0.05 0.0110056 
v -0.0140707 0.05 0.00954018 
v -0.0116909 0.05 0.0123419 
v -0.010288 0.05 0.0135336 
v -0.00876442 0.05 0.0145666 
v -0.00713811 0.05 0.0154288 
v -0.00542813 0.05 0.0161101 
v 0.0150197 0.05 0.00796294 
v -0.0150197 0.05 0.00796294 
v -0.0036545 0.05 0.0166025 
v 0.00183802 0.05 0.0169003 
v -4.1638e-18 0.05 0.017 
v 0.0157926 0.05 0.00629235 
v 0.0163803 0.05 0.00454798 
v -0.00183802 0.05 0.0169003 
v -4.1638e-18 0.003 0.017 
v -0.00183802 0.003 0.0169003 
v -0.0036545 0.003 0.0166025 
v -0.00542813 0.003 0.0161101 
v -0.00713811 0.003 0.0154288 
v -0.00876442 0.003 0.0145666 
v -0.010288 0.003 0.0135336 
v -0.0116909 0.003 0.0123419 
v -0.0129568 0.003 0.0110056 
v -0.0140707 0.003 0.00954018 
v -0.0150197 0.003 0.00796294 
v -0.0157926 0.003 0.00629235 
v -0.0163803 0.003 0.00454798 
v -0.0167761 0.003 0.00275029 
v -0.0169751 0.003 0.000920361 
v -0.0169751 0.003 -0.000920361 
v -0.0167761 0.003 -0.00275029 
v -0.0163803 0.003 -0.00454798 
v -0.0157926 0.003 -0.00629235 
v -0.0150197 0.003 -0.00796294 
v -0.0140707 0.003 -0.00954018 
v -0.0129568 0.003 -0.0110056 
v -0.0116909 0.003 -0.0123419 
v -0.010288 0.003 -0.0135336 
v -0.00876442 0.003 -0.0145666 
v -0.00713811 0.003 -0.0154288 
v -0.00542813 0.003 -0.0161101 
v -0.0036545 0.003 -0.0166025 
v -0.00183802 0.003 -0.0169003 
v 2.0819e-18 0.003 -0.017 
v 0.00183802 0.003 -0.0169003 
v 0.0036545 0.003 -0.0166025 
v 0.00542813 0.003 -0.0161101 
v 0.00713811 0.003 -0.0154288 
v 0.00876442 0.003 -0.0145666 
v 0.010288 0.003 -0.0135336 
v 0.0116909 0.003 -0.0123419 
v 0.0129568 0.003 -0.0110056 
v 0.0140707 0.003 -0.00954018 
v 0.0150197 0.003 -0.00796294 
v 0.0157926 0.003 -0.00629235 
v 0.0163803 0.003 -0.00454798 
v 0.0167761 0.003 -0.00275029 
v 0.0169751 0.003 -0.000920361 
v 0.0169751 0.003 0.000920361 
v 0.0167761 0.003 0.00275029 
v 0.0163803 0.003 0.00454798 
v 0.0157926 0.003 0.00629235 
v 0.0150197 0.003 0.00796294 
v 0.0140707 0.003 0.00954018 
v 0.0129568 0.003 0.0110056 
v 0.0116909 0.003 0.0123419 
v 0.010288 0.003 0.0135336 
v 0.00876442 0.003 0.0145666 
v 0.00713811 0.003 0.0154288 
v 0.00542813 0.003 0.0161101 
v 0.0036545 0.003 0.0166025 
v 0.00183802 0.003 0.0169003 
v 0 0.003 2.2656e-18 
vn 0 -1 0 
vn 0 0 -1 
vn 0.108119 0 -0.994138 
vn 0.21497 0 -0.976621 
vn 0.319302 0 -0.947653 
vn 0.419889 0 -0.907575 
vn 0.515554 0 -0.856857 
vn 0.605174 0 -0.796093 
vn 0.687699 0 -0.725995 
vn 0.762162 0 -0.647386 
vn 0.827689 0 -0.561187 
vn 0.883512 0 -0.468408 
vn 0.928977 0 -0.370138 
vn 0.96355 0 -0.267528 
vn 0.986827 0 -0.161782 
vn 0.998533 0 -0.0541389 
vn 0.998533 0 0.0541389 
vn 0.986827 0 0.161782 
vn 0.96355 0 0.267528 
vn 0.928977 0 0.370138 
vn 0.883512 0 0.468408 
vn 0.827689 0 0.561187 
vn 0.762162 0 0.647386 
vn 0.687699 0 0.725995 
vn 0.605174 0 0.796093 
vn 0.515554 0 0.856857 
vn 0.419889 0 0.907575 
vn 0.319302 0 0.947653 
vn 0.21497 0 0.976621 
vn 0.108119 0 0.994138 
vn 1.22465e-16 0 1 
vn -0.108119 0 0.994138 
vn -0.21497 0 0.976621 
vn -0.319302 0 0.947653 
vn -0.419889 0 0.907575 
vn -0.515554 0 0.856857 
vn -0.605174 0 0.796093 
vn -0.687699 0 0.725995 
vn -0.762162 0 0.647386 
vn -0.827689 0 0.561187 
vn -0.883512 0 0.468408 
vn -0.928977 0 0.370138 
vn -0.96355 0 0.267528 
vn -0.986827 0 0.161782 
vn -0.998533 0 0.0541389 
vn -0.998533 0 -0.0541389 
vn -0.986827 0 -0.161782 
vn -0.96355 0 -0.267528 
vn -0.928977 0 -0.370138 
vn -0.883512 0 -0.468408 
vn -0.827689 0 -0.561187 
vn -0.762162 0 -0.647386 
vn -0.687699 0 -0.725995 
vn -0.605174 0 -0.796093 
vn -0.515554 0 -0.856857 
vn -0.419889 0 -0.907575 
vn -0.319302 0 -0.947653 
vn -0.21497 0 -0.976621 
vn -0.108119 0 -0.994138 
vn 0 1 0 
vn 0.108119 0 -0.994138 
vn 2.44929e-16 0 -1 
vn 0.21497 0 -0.976621 
vn 0.108119 0 -0.994138 
vn 0.319302 0 -0.947653 
vn 0.21497 0 -0.976621 
vn 0.419889 0 -0.907575 
vn 0.319302 0 -0.947653 
vn 0.515554 0 -0.856857 
vn 0.419889 0 -0.907575 
vn 0.605174 0 -0.796093 
vn 0.515554 0 -0.856857 
vn 0.687699 0 -0.725995 
vn 0.605174 0 -0.796093 
vn 0.762162 0 -0.647386 
vn 0.687699 0 -0.725995 
vn 0.827689 0 -0.561187 
vn 0.762162 0 -0.647386 
vn 0.883512 0 -0.468408 
vn 0.827689 0 -0.561187 
vn 0.928977 0 -0.370138 
vn 0.883512 0 -0.468408 
vn 0.96355 0 -0.267528 
vn 0.928977 0 -0.370138 
vn 0.986827 0 -0.161782 
vn 0.96355 0 -0.267528 
vn 0.998533 0 -0.0541389 
vn 0.986827 0 -0.161782 
vn 0.998533 0 0.0541389 
vn 0.998533 0 -0.0541389 
vn 0.986827 0 0.161782 
vn 0.998533 0 0.0541389 
vn 0.96355 0 0.267528 
vn 0.986827 0 0.161782 
vn 0.928977 0 0.370138 
vn 0.96355 0 0.267528 
vn 0.883512 0 0.468408 
vn 0.928977 0 0.370138 
vn 0.827689 0 0.561187 
vn 0.883512 0 0.468408 
vn 0.762162 0 0.647386 
vn 0.827689 0 0.561187 
vn 0.687699 0 0.725995 
vn 0.762162 0 0.647386 
vn 0.605174 0 0.796093 
vn 0.687699 0 0.725995 
vn 0.515554 0 0.856857 
vn 0.605174 0 0.796093 
vn 0.419889 0 0.907575 
vn 0.515554 0 0.856857 
vn 0.319302 0 0.947653 
vn 0.419889 0 0.907575 
vn 0.21497 0 0.976621 
vn 0.319302 0 0.947653 
vn 0.108119 0 0.994138 
vn 0.21497 0 0.976621 
vn -1.22465e-16 0 1 
vn 0.108119 0 0.994138 
vn -0.108119 0 0.994138 
vn -1.22465e-16 0 1 
vn -0.21497 0 0.976621 
vn -0.108119 0 0.994138 
vn -0.319302 0 0.947653 
vn -0.21497 0 0.976621 
vn -0.419889 0 0.907575 
vn -0.319302 0 0.947653 
vn -0.515554 0 0.856857 
vn -0.419889 0 0.907575 
vn -0.605174 0 0.796093 
vn -0.515554 0 0.856857 
vn -0.687699 0 0.725995 
vn -0.605174 0 0.796093 
vn -0.762162 0 0.647386 
vn -0.687699 0 0.725995 
vn -0.827689 0 0.561187 
vn -0.762162 0 0.647386 
vn -0.883512 0 0.468408 
vn -0.827689 0 0.561187 
vn -0.928977 0 0.370138 
vn -0.883512 0 0.468408 
vn -0.96355 0 0.267528 
vn -0.928977 0 0.370138 
vn -0.986827 0 0.161782 
vn -0.96355 0 0.267528 
vn -0.998533 0 0.0541389 
vn -0.986827 0 0.161782 
vn -0.998533 0 -0.0541389 
vn -0.998533 0 0.0541389 
vn -0.986827 0 -0.161782 
vn -0.998533 0 -0.0541389 
vn -0.96355 0 -0.267528 
vn -0.986827 0 -0.161782 
vn -0.928977 0 -0.370138 
vn -0.96355 0 -0.267528 
vn -0.883512 0 -0.468408 
vn -0.928977 0 -0.370138 
vn -0.827689 0 -0.561187 
vn -0.883512 0 -0.468408 
vn -0.762162 0 -0.647386 
vn -0.827689 0 -0.561187 
vn -0.687699 0 -0.725995 
vn -0.762162 0 -0.647386 
vn -0.605174 0 -0.796093 
vn -0.687699 0 -0.725995 
vn -0.515554 0 -0.856857 
vn -0.605174 0 -0.796093 
vn -0.419889 0 -0.907575 
vn -0.515554 0 -0.856857 
vn -0.319302 0 -0.947653 
vn -0.419889 0 -0.907575 
vn -0.21497 0 -0.976621 
vn -0.319302 0 -0.947653 
vn -0.108119 0 -0.994138 
vn -0.21497 0 -0.976621 
vn 0 1 0 
usemtl 0.615686_0.811765_0.929412_0.000000_0.000000
o mesh0
f 59//1 1//1 2//1 
f 2//1 3//1 59//1 
f 3//1 4//1 59//1 
f 4//1 5//1 59//1 
f 5//1 6//1 59//1 
f 6//1 7//1 59//1 
f 7//1 8//1 59//1 
f 8//1 9//1 59//1 
f 9//1 10//1 59//1 
f 10//1 11//1 59//1 
f 11//1 12//1 59//1 
f 12//1 13//1 59//1 
f 13//1 14//1 59//1 
f 14//1 15//1 59//1 
f 15//1 16//1 59//1 
f 16//1 17//1 59//1 
f 17//1 18//1 59//1 
f 18//1 19//1 59//1 
f 19//1 20//1 59//1 
f 20//1 21//1 59//1 
f 21//1 22//1 59//1 
f 22//1 23//1 59//1 
f 23//1 24//1 59//1 
f 24//1 25//1 59//1 
f 25//1 26//1 59//1 
f 26//1 27//1 59//1 
f 27//1 28//1 59//1 
f 28//1 29//1 59//1 
f 29//1 30//1 59//1 
f 30//1 31//1 59//1 
f 31//1 32//1 59//1 
f 32//1 33//1 59//1 
f 33//1 34//1 59//1 
f 34//1 35//1 59//1 
f 35//1 36//1 59//1 
f 36//1 37//1 59//1 
f 37//1 38//1 59//1 
f 38//1 39//1 59//1 
f 39//1 40//1 59//1 
f 40//1 41//1 59//1 
f 41//1 42//1 59//1 
f 42//1 43//1 59//1 
f 43//1 44//1 59//1 
f 44//1 45//1 59//1 
f 45//1 46//1 59//1 
f 46//1 47//1 59//1 
f 47//1 48//1 59//1 
f 48//1 49//1 59//1 
f 49//1 50//1 59//1 
f 50//1 51//1 59//1 
f 51//1 52//1 59//1 
f 52//1 53//1 59//1 
f 53//1 54//1 59//1 
f 54//1 55//1 59//1 
f 55//1 56//1 59//1 
f 56//1 57//1 59//1 
f 57//1 58//1 59//1 
f 58//1 1//1 59//1 
o mesh1
f 58//2 60//2 61//3 
f 1//3 61//3 62//4 
f 2//4 62//4 63//5 
f 3//5 63//5 64//6 
f 4//6 64//6 65//7 
f 5//7 65//7 66//8 
f 6//8 66//8 67//9 
f 7//9 67//9 68//10 
f 8//10 68//10 69//11 
f 9//11 69//11 70//12 
f 10//12 70//12 71//13 
f 11//13 71//13 72//14 
f 12//14 72//14 73//15 
f 13//15 73//15 74//16 
f 14//16 74//16 75//17 
f 15//17 75//17 76//18 
f 16//18 76//18 77//19 
f 17//19 77//19 78//20 
f 18//20 78//20 79//21 
f 19//21 79//21 80//22 
f 20//22 80//22 81//23 
f 21//23 81//23 82//24 
f 22//24 82//24 83//25 
f 23//25 83//25 84//26 
f 24//26 84//26 85//27 
f 25//27 85//27 86//28 
f 26//28 86//28 87//29 
f 27//29 87//29 88//30 
f 28//30 88//30 89//31 
f 29//31 89//31 90//32 
f 30//32 90//32 91//33 
f 31//33 91//33 92//34 
f 32//34 92//34 93//35 
f 33//35 93//35 94//36 
f 34//36 94//36 95//37 
f 35//37 95//37 96//38 
f 36//38 96//38 97//39 
f 37//39 97//39 98//40 
f 38//40 98//40 99//41 
f 39//41 99//41 100//42 
f 40//42 100//42 101//43 
f 41//43 101//43 102//44 
f 42//44 102//44 103//45 
f 43//45 103//45 104//46 
f 44//46 104//46 105//47 
f 45//47 105//47 106//48 
f 46//48 106//48 107//49 
f 47//49 107//49 108//50 
f 48//50 108//50 109//51 
f 49//51 109//51 110//52 
f 50//52 110//52 111//53 
f 51//53 111//53 112//54 
f 52//54 112//54 113//55 
f 53//55 113//55 114//56 
f 54//56 114//56 115//57 
f 55//57 115//57 116//58 
f 56//58 116//58 117//59 
f 57//59 117//59 60//2 
f 60//2 58//2 57//59 
f 117//59 57//59 56//58 
f 116//58 56//58 55//57 
f 115//57 55//57 54//56 
f 114//56 54//56 53//55 
f 113//55 53//55 52//54 
f 112//54 52//54 51//53 
f 111//53 51//53 50//52 
f 110//52 50//52 49//51 
f 109//51 49//51 48//50 
f 108//50 48//50 47//49 
f 107//49 47//49 46//48 
f 106//48 46//48 45//47 
f 105//47 45//47 44//46 
f 104//46 44//46 43//45 
f 103//45 43//45 42//44 
f 102//44 42//44 41//43 
f 101//43 41//43 40//42 
f 100//42 40//42 39//41 
f 99//41 39//41 38//40 
f 98//40 38//40 37//39 
f 97//39 37//39 36//38 
f 96//38 36//38 35//37 
f 95//37 35//37 34//36 
f 94//36 34//36 33//35 
f 93//35 33//35 32//34 
f 92//34 32//34 31//33 
f 91//33 31//33 30//32 
f 90//32 30//32 29//31 
f 89//31 29//31 28//30 
f 88//30 28//30 27//29 
f 87//29 27//29 26//28 
f 86//28 26//28 25//27 
f 85//27 25//27 24//26 
f 84//26 24//26 23//25 
f 83//25 23//25 22//24 
f 82//24 22//24 21//23 
f 81//23 21//23 20//22 
f 80//22 20//22 19//21 
f 79//21 19//21 18//20 
f 78//20 18//20 17//19 
f 77//19 17//19 16//18 
f 76//18 16//18 15//17 
f 75//17 15//17 14//16 
f 74//16 14//16 13//15 
f 73//15 13//15 12//14 
f 72//14 12//14 11//13 
f 71//13 11//13 10//12 
f 70//12 10//12 9//11 
f 69//11 9//11 8//10 
f 68//10 8//10 7//9 
f 67//9 7//9 6//8 
f 66//8 6//8 5//7 
f 65//7 5//7 4//6 
f 64//6 4//6 3//5 
f 63//5 3//5 2//4 
f 62//4 2//4 1//3 
f 61//3 1//3 58//2 
o mesh2
f 113//60 118//60 119//60 
f 112//60 120//60 118//60 
f 116//60 115//60 121//60 
f 114//60 119//60 121//60 
f 118//60 113//60 112//60 
f 111//60 122//60 120//60 
f 121//60 115//60 114//60 
f 120//60 112//60 111//60 
f 109//60 123//60 124//60 
f 109//60 108//60 125//60 
f 69//60 68//60 126//60 
f 68//60 67//60 127//60 
f 66//60 128//60 127//60 
f 66//60 65//60 129//60 
f 119//60 114//60 113//60 
f 110//60 124//60 122//60 
f 125//60 123//60 109//60 
f 108//60 107//60 130//60 
f 72//60 131//60 132//60 
f 72//60 71//60 133//60 
f 70//60 69//60 134//60 
f 127//60 126//60 68//60 
f 129//60 128//60 66//60 
f 64//60 135//60 129//60 
f 122//60 111//60 110//60 
f 130//60 125//60 108//60 
f 106//60 136//60 130//60 
f 105//60 137//60 136//60 
f 101//60 138//60 139//60 
f 101//60 100//60 140//60 
f 133//60 131//60 72//60 
f 71//60 70//60 141//60 
f 126//60 134//60 69//60 
f 129//60 65//60 64//60 
f 63//60 142//60 135//60 
f 62//60 143//60 142//60 
f 61//60 144//60 143//60 
f 61//60 60//60 145//60 
f 117//60 146//60 145//60 
f 117//60 116//60 147//60 
f 124//60 110//60 109//60 
f 136//60 106//60 105//60 
f 104//60 148//60 137//60 
f 104//60 103//60 149//60 
f 102//60 139//60 149//60 
f 140//60 138//60 101//60 
f 86//60 150//60 151//60 
f 85//60 152//60 150//60 
f 141//60 133//60 71//60 
f 127//60 67//60 66//60 
f 142//60 63//60 62//60 
f 145//60 144//60 61//60 
f 147//60 146//60 117//60 
f 130//60 107//60 106//60 
f 149//60 148//60 104//60 
f 139//60 102//60 101//60 
f 150//60 86//60 85//60 
f 84//60 153//60 152//60 
f 83//60 154//60 153//60 
f 83//60 82//60 155//60 
f 82//60 81//60 156//60 
f 81//60 80//60 157//60 
f 75//60 158//60 159//60 
f 74//60 160//60 158//60 
f 134//60 141//60 70//60 
f 143//60 62//60 61//60 
f 121//60 147//60 116//60 
f 149//60 103//60 102//60 
f 97//60 161//60 162//60 
f 96//60 163//60 161//60 
f 95//60 164//60 163//60 
f 94//60 165//60 164//60 
f 93//60 166//60 165//60 
f 93//60 92//60 167//60 
f 152//60 85//60 84//60 
f 155//60 154//60 83//60 
f 157//60 156//60 81//60 
f 80//60 79//60 168//60 
f 158//60 75//60 74//60 
f 74//60 73//60 132//60 
f 135//60 64//60 63//60 
f 137//60 105//60 104//60 
f 100//60 99//60 169//60 
f 99//60 98//60 162//60 
f 161//60 97//60 96//60 
f 164//60 95//60 94//60 
f 167//60 166//60 93//60 
f 92//60 91//60 170//60 
f 88//60 171//60 172//60 
f 87//60 151//60 171//60 
f 153//60 84//60 83//60 
f 168//60 157//60 80//60 
f 78//60 173//60 168//60 
f 78//60 77//60 174//60 
f 76//60 159//60 174//60 
f 132//60 160//60 74//60 
f 145//60 60//60 117//60 
f 162//60 169//60 99//60 
f 163//60 96//60 95//60 
f 170//60 167//60 92//60 
f 171//60 88//60 87//60 
f 156//60 155//60 82//60 
f 174//60 173//60 78//60 
f 159//60 76//60 75//60 
f 169//60 140//60 100//60 
f 165//60 94//60 93//60 
f 90//60 175//60 170//60 
f 90//60 89//60 172//60 
f 151//60 87//60 86//60 
f 174//60 77//60 76//60 
f 162//60 98//60 97//60 
f 172//60 175//60 90//60 
f 168//60 79//60 78//60 
f 170//60 91//60 90//60 
f 132//60 73//60 72//60 
f 172//60 89//60 88//60 
o mesh3
f 175//61 172//62 176//62 
f 170//63 175//61 177//64 
f 167//65 170//63 178//66 
f 166//67 167//65 179//68 
f 165//69 166//67 180//70 
f 164//71 165//69 181//72 
f 163//73 164//71 182//74 
f 161//75 163//73 183//76 
f 162//77 161//75 184//78 
f 169//79 162//77 185//80 
f 140//81 169//79 186//82 
f 138//83 140//81 187//84 
f 139//85 138//83 188//86 
f 149//87 139//85 189//88 
f 148//89 149//87 190//90 
f 137//91 148//89 191//92 
f 136//93 137//91 192//94 
f 130//95 136//93 193//96 
f 125//97 130//95 194//98 
f 123//99 125//97 195//100 
f 124//101 123//99 196//102 
f 122//103 124//101 197//104 
f 120//105 122//103 198//106 
f 118//107 120//105 199//108 
f 119//109 118//107 200//110 
f 121//111 119//109 201//112 
f 147//113 121//111 202//114 
f 146//115 147//113 203//116 
f 145//117 146//115 204//118 
f 144//119 145//117 205//120 
f 143//121 144//119 206//122 
f 142//123 143//121 207//124 
f 135//125 142//123 208//126 
f 129//127 135//125 209//128 
f 128//129 129//127 210//130 
f 127//131 128//129 211//132 
f 126//133 127//131 212//134 
f 134//135 126//133 213//136 
f 141//137 134//135 214//138 
f 133//139 141//137 215//140 
f 131//141 133//139 216//142 
f 132//143 131//141 217//144 
f 160//145 132//143 218//146 
f 158//147 160//145 219//148 
f 159//149 158//147 220//150 
f 174//151 159//149 221//152 
f 173//153 174//151 222//154 
f 168//155 173//153 223//156 
f 157//157 168//155 224//158 
f 156//159 157//157 225//160 
f 155//161 156//159 226//162 
f 154//163 155//161 227//164 
f 153//165 154//163 228//166 
f 152//167 153//165 229//168 
f 150//169 152//167 230//170 
f 151//171 150//169 231//172 
f 171//173 151//171 232//174 
f 172//62 171//173 233//173 
f 233//173 176//62 172//62 
f 232//174 233//173 171//173 
f 231//172 232//174 151//171 
f 230//170 231//172 150//169 
f 229//168 230//170 152//167 
f 228//166 229//168 153//165 
f 227//164 228//166 154//163 
f 226//162 227//164 155//161 
f 225//160 226//162 156//159 
f 224//158 225//160 157//157 
f 223//156 224//158 168//155 
f 222//154 223//156 173//153 
f 221//152 222//154 174//151 
f 220//150 221//152 159//149 
f 219//148 220//150 158//147 
f 218//146 219//148 160//145 
f 217//144 218//146 132//143 
f 216//142 217//144 131//141 
f 215//140 216//142 133//139 
f 214//138 215//140 141//137 
f 213//136 214//138 134//135 
f 212//134 213//136 126//133 
f 211//132 212//134 127//131 
f 210//130 211//132 128//129 
f 209//128 210//130 129//127 
f 208//126 209//128 135//125 
f 207//124 208//126 142//123 
f 206//122 207//124 143//121 
f 205//120 206//122 144//119 
f 204//118 205//120 145//117 
f 203//116 204//118 146//115 
f 202//114 203//116 147//113 
f 201//112 202//114 121//111 
f 200//110 201//112 119//109 
f 199//108 200//110 118//107 
f 198//106 199//108 120//105 
f 197//104 198//106 122//103 
f 196//102 197//104 124//101 
f 195//100 196//102 123//99 
f 194//98 195//100 125//97 
f 193//96 194//98 130//95 
f 192//94 193//96 136//93 
f 191//92 192//94 137//91 
f 190//90 191//92 148//89 
f 189//88 190//90 149//87 
f 188//86 189//88 139//85 
f 187//84 188//86 138//83 
f 186//82 187//84 140//81 
f 185//80 186//82 169//79 
f 184//78 185//80 162//77 
f 183//76 184//78 161//75 
f 182//74 183//76 163//73 
f 181//72 182//74 164//71 
f 180//70 181//72 165//69 
f 179//68 180//70 166//67 
f 178//66 179//68 167//65 
f 177//64 178//66 170//63 
f 176//62 177//64 175//61 
o mesh4
f 234//175 204//175 203//175 
f 203//175 202//175 234//175 
f 202//175 201//175 234//175 
f 201//175 200//175 234//175 
f 200//175 199//175 234//175 
f 199//175 198//175 234//175 
f 198//175 197//175 234//175 
f 197//175 196//175 234//175 
f 196//175 195//175 234//175 
f 195//175 194//175 234//175 
f 194//175 193//175 234//175 
f 193//175 192//175 234//175 
f 192//175 191//175 234//175 
f 191//175 190//175 234//175 
f 190//175 189//175 234//175 
f 189//175 188//175 234//175 
f 188//175 187//175 234//175 
f 187//175 186//175 234//175 
f 186//175 185//175 234//175 
f 185//175 184//175 234//175 
f 184//175 183//175 234//175 
f 183//175 182//175 234//175 
f 182//175 181//175 234//175 
f 181//175 180//175 234//175 
f 180//175 179//175 234//175 
f 179//175 178//175 234//175 
f 178//175 177//175 234//175 
f 177//175 176//175 234//175 
f 176//175 233//175 234//175 
f 233//175 232//175 234//175 
f 232//175 231//175 234//175 
f 231//175 230//175 234//175 
f 230//175 229//175 234//175 
f 229//175 228//175 234//175 
f 228//175 227//175 234//175 
f 227//175 226//175 234//175 
f 226//175 225//175 234//175 
f 225//175 224//175 234//175 
f 224//175 223//175 234//175 
f 223//175 222//175 234//175 
f 222//175 221//175 234//175 
f 221//175 220//175 234//175 
f 220//175 219//175 234//175 
f 219//175 218//175 234//175 
f 218//175 217//175 234//175 
f 217//175 216//175 234//175 
f 216//175 215//175 234//175 
f 215//175 214//175 234//175 
f 214//175 213//175 234//175 
f 213//175 212//175 234//175 
f 212//175 211//175 234//175 
f 211//175 210//175 234//175 
f 210//175 209//175 234//175 
f 209//175 208//175 234//175 
f 208//175 207//175 234//175 
f 207//175 206//175 234//175 
f 206//175 205//175 234//175 
f 205//175 204//175 234//175 
