# OBJ generated by ONSHAPE BY PTC INC, 1.218 Units = meters
mtllib square_brush.mtl
g square_brush
v 0.0075 -0.1 -0.0075 
v 0.0075 0.1 -0.0075 
v 0.0075 0.1 0.0075 
v 0.0075 -0.1 0.0075 
v -0.0175 -0.1 -0.0075 
v -0.0175 -0.1 0.0075 
v -0.0075 0.1 0.0075 
v -0.0075 0.1 -0.0075 
v -0.0075 -0.07 0.0075 
v -0.0175 -0.07 0.0075 
v -0.0075 -0.07 -0.0075 
v -0.0175 -0.07 -0.0075 
vn 1 0 -5.78241e-17 
vn 0 -1 0 
vn 0 1 0 
vn 0 0 1 
vn 0 0 -1 
vn -1 0 5.78241e-17 
vn 0 1 0 
usemtl 0.615686_0.811765_0.929412_0.000000_0.000000
o mesh0
f 1//1 2//1 3//1 
f 3//1 4//1 1//1 
o mesh1
f 5//2 1//2 4//2 
f 4//2 6//2 5//2 
o mesh2
f 7//3 3//3 2//3 
f 2//3 8//3 7//3 
o mesh3
f 6//4 4//4 9//4 
f 3//4 7//4 9//4 
f 9//4 4//4 3//4 
f 9//4 10//4 6//4 
o mesh4
f 2//5 1//5 11//5 
f 5//5 12//5 11//5 
f 11//5 1//5 5//5 
f 11//5 8//5 2//5 
o mesh5
f 7//6 8//6 11//6 
f 11//6 9//6 7//6 
o mesh6
f 10//7 9//7 11//7 
f 11//7 12//7 10//7 
o mesh7
f 6//6 10//6 12//6 
f 12//6 5//6 6//6 
